<svg width="120" height="119" viewBox="0 0 120 119" fill="none" xmlns="http://www.w3.org/2000/svg">
<path fill-rule="evenodd" clip-rule="evenodd" d="M21.0275 2.25838C38.0555 -3.32048 55.2629 7.15658 60.0426 24.1193C63.2994 35.6781 60.215 47.7983 52.6936 56.0976C54.2341 58.0572 55.9173 59.9414 57.7446 61.7376C59.5631 63.5251 61.4698 65.1722 63.4523 66.6802C71.8986 59.234 84.2751 56.1703 96.0767 59.3833C113.343 64.0842 123.989 80.9992 118.318 97.7243C114.598 108.698 107.66 115.366 98.4065 117.56C89.8087 119.599 80.5384 117.432 72.3623 114.093C55.8949 107.369 39.6344 94.1246 32.2082 86.8248C24.6068 79.3527 11.1811 63.3578 4.39765 47.2132C1.02916 39.1961 -1.13976 30.1242 0.94116 21.7178C3.17993 12.6736 9.93331 5.8929 21.0275 2.25838ZM46.4695 27.8092C43.5635 17.4959 33.9078 12.621 25.4836 15.381C18.0786 17.8069 15.5102 21.4132 14.6258 24.986C13.5835 29.1966 14.4899 34.9719 17.4159 41.9358C23.2215 55.7533 35.2619 70.256 42.1703 77.0468C48.9116 83.6733 63.6607 95.5592 77.7682 101.32C84.8795 104.223 90.7881 105.136 95.1009 104.113C98.7583 103.246 102.463 100.708 104.956 93.3532C107.769 85.0592 102.798 75.5681 92.315 72.714C84.5136 70.5901 76.4928 73.0509 71.7193 78.0725C68.6369 81.315 62.761 83.1636 57.7618 79.736C54.2444 77.3243 50.9038 74.5838 47.7825 71.5156C44.6562 68.4425 41.8649 65.1534 39.4093 61.6906C35.9418 56.8011 37.792 51.052 41.0694 48.0172C46.1438 43.3182 48.6244 35.4569 46.4695 27.8092Z" fill="white"/>
</svg>
