<svg width="166" height="166" viewBox="0 0 166 166" fill="none" xmlns="http://www.w3.org/2000/svg">
<path fill-rule="evenodd" clip-rule="evenodd" d="M48.4167 41.5C48.4167 26.2201 60.8035 13.8333 76.0833 13.8333H89.9167C105.197 13.8333 117.583 26.2201 117.583 41.5V83C117.583 98.2799 105.197 110.667 89.9167 110.667H76.0833C60.8035 110.667 48.4167 98.2799 48.4167 83V41.5ZM76.0833 27.6666C68.4434 27.6666 62.25 33.86 62.25 41.5V83C62.25 90.6399 68.4434 96.8333 76.0833 96.8333H89.9167C97.5566 96.8333 103.75 90.6399 103.75 83V41.5C103.75 33.86 97.5566 27.6666 89.9167 27.6666H76.0833Z" fill="white"/>
<path fill-rule="evenodd" clip-rule="evenodd" d="M34.5834 69.1666C38.4033 69.1666 41.5 72.2633 41.5 76.0833V83C41.5 102.1 56.9835 117.583 76.0834 117.583H89.9167C109.017 117.583 124.5 102.1 124.5 83V76.0833C124.5 72.2633 127.597 69.1666 131.417 69.1666C135.237 69.1666 138.333 72.2633 138.333 76.0833V83C138.333 109.74 116.656 131.417 89.9167 131.417H76.0834C49.3436 131.417 27.6667 109.74 27.6667 83V76.0833C27.6667 72.2633 30.7634 69.1666 34.5834 69.1666Z" fill="white"/>
<path fill-rule="evenodd" clip-rule="evenodd" d="M83 117.583C86.82 117.583 89.9167 120.68 89.9167 124.5V145.25C89.9167 149.07 86.82 152.167 83 152.167C79.1801 152.167 76.0834 149.07 76.0834 145.25L76.0834 124.5C76.0834 120.68 79.1801 117.583 83 117.583Z" fill="white"/>
</svg>
