<svg width="168" height="166" viewBox="0 0 168 166" fill="none" xmlns="http://www.w3.org/2000/svg">
<path fill-rule="evenodd" clip-rule="evenodd" d="M84 69.1667C91.732 69.1667 98 75.3601 98 83C98 90.64 91.732 96.8334 84 96.8334C76.268 96.8334 70 90.64 70 83C70 75.3601 76.268 69.1667 84 69.1667Z" fill="white"/>
<path fill-rule="evenodd" clip-rule="evenodd" d="M84 117.583C91.732 117.583 98 123.777 98 131.417C98 139.057 91.732 145.25 84 145.25C76.268 145.25 70 139.057 70 131.417C70 123.777 76.268 117.583 84 117.583Z" fill="white"/>
<path fill-rule="evenodd" clip-rule="evenodd" d="M84 20.75C91.732 20.75 98 26.9434 98 34.5833C98 42.2233 91.732 48.4167 84 48.4167C76.268 48.4167 70 42.2233 70 34.5833C70 26.9434 76.268 20.75 84 20.75Z" fill="white"/>
</svg>
