<svg width="166" height="166" viewBox="0 0 166 166" fill="none" xmlns="http://www.w3.org/2000/svg">
<path fill-rule="evenodd" clip-rule="evenodd" d="M128.792 18.3532C139.749 15.2227 149.879 25.3527 146.748 36.3097L119.084 133.134C114.473 149.273 92.9143 152.305 84.0309 138.063L64.682 107.044C63.0078 104.36 60.7421 102.094 58.0581 100.42L27.0385 81.0708C12.7968 72.1874 15.8284 50.6285 31.9678 46.0173L128.792 18.3532ZM132.956 31.6371C132.886 31.6174 132.779 31.601 132.592 31.6543L35.7681 59.3184C31.1568 60.6359 30.2906 66.7955 34.3597 69.3337L65.3793 88.6825C69.8527 91.4728 73.6289 95.249 76.4192 99.7224L95.768 130.742C98.3062 134.811 104.466 133.945 105.783 129.334L133.447 32.5094C133.501 32.323 133.484 32.2159 133.465 32.1453C133.439 32.0527 133.379 31.9374 133.271 31.8303C133.164 31.7231 133.049 31.6629 132.956 31.6371Z" fill="white"/>
<path fill-rule="evenodd" clip-rule="evenodd" d="M99.843 65.2589C102.544 67.96 102.544 72.3394 99.843 75.0405L75.3889 99.4946C72.6878 102.196 68.3084 102.196 65.6073 99.4946C62.9062 96.7935 62.9062 92.4141 65.6073 89.713L90.0614 65.2589C92.7625 62.5578 97.1419 62.5578 99.843 65.2589Z" fill="white"/>
</svg>
